# xmcd CD database file
#
# Track frame offsets:
#	150
#	18766
#	45219
#	60772
#	83787
#	98794
#	121639
#	138945
#	161212
#
# Disc length: 2460 seconds
#
# Revision: 0
# Processed by: cddbd v1.5.2PL0 Copyright (c) Steve Scherf et al.
# Submitted via: CDex 1.70beta2
#
DISCID=5a099a09
DTITLE=C-CLAYS - 月華繚乱
DYEAR=2006
DGENRE=東方アレンジ
TTITLE0=風の循環 ～WindTour
TTITLE1=天狗の手帖 ～MysteriousNote
TTITLE2=Cloud of Truth (風神少女/Vocal)
TTITLE3=レトロスペクティブ京都
TTITLE4=U.N.オーエンは彼女なのか？
TTITLE5=天狗が見ている ～BlackEyes
TTITLE6=フラワリングナイト
TTITLE7=優雅に咲かせ、墨染めの桜 ～Border of Life
TTITLE8=Moon Tale (竹取飛翔 ～LunaticPrincess/Vocal)
EXTD=YEAR: 2006
EXTT0=
EXTT1=
EXTT2=
EXTT3=
EXTT4=
EXTT5=
EXTT6=
EXTT7=
EXTT8=
PLAYORDER=
